<svg width="567" height="406" viewBox="0 0 567 406" fill="none" xmlns="http://www.w3.org/2000/svg">
<g clip-path="url(#clip0)">
<path opacity="0.1" d="M558.022 272.951C544.871 300.092 518.168 318.24 490.496 330.208C453.241 346.326 412.214 352.719 371.752 350.015C364.661 349.543 357.592 348.789 350.544 347.752C326.065 344.18 302.201 337.227 279.632 327.094C273.118 324.159 266.737 320.955 260.487 317.482C250.049 311.694 240.047 305.15 230.563 297.903C228.177 296.081 225.824 294.212 223.505 292.298C221.896 290.971 220.302 289.614 218.684 288.297C215.269 285.519 211.755 282.879 207.835 280.904C206.652 280.307 205.439 279.772 204.202 279.299C191.788 274.575 177.474 276.358 164.551 280.042C154.721 282.845 145.139 286.682 135.319 289.421C130.951 290.676 126.501 291.622 122 292.253C111.952 293.526 101.748 292.629 92.0756 289.624L91.249 289.366C89.8631 288.93 88.4888 288.453 87.1261 287.935L86.2995 287.618C84.9796 287.11 83.6878 286.564 82.424 285.979L81.5975 285.603C80.2776 284.989 78.9858 284.34 77.722 283.657C77.2667 283.419 76.8163 283.162 76.3708 282.919C69.1805 278.901 62.6446 273.81 56.9885 267.821C56.8252 267.658 56.6718 267.489 56.4936 267.326C55.7066 266.474 54.9345 265.608 54.1871 264.721C53.91 264.394 53.6328 264.068 53.3606 263.731C52.4729 262.648 51.6167 261.541 50.7918 260.408C50.668 260.245 50.5492 260.077 50.4305 259.913C47.0507 255.235 44.2488 250.166 42.0856 244.815C42.0163 244.652 41.952 244.483 41.8926 244.32C41.2326 242.62 40.6304 240.892 40.086 239.136C39.8633 238.403 39.6504 237.65 39.4624 236.917C39.398 236.699 39.3386 236.476 39.2842 236.259C36.5521 225.498 36.2402 214.312 36.2402 203.191C36.2402 201.893 36.2402 200.598 36.2402 199.304C36.3194 181.314 36.5966 163.017 39.2495 145.275C39.2495 145.151 39.2842 145.027 39.304 144.908C40.1919 138.936 41.3997 133.015 42.9221 127.171C44.5154 121.04 46.5517 115.032 49.0149 109.196C55.1176 94.8362 63.9921 81.7685 73.8465 69.6565C98.6683 39.1784 131.221 13.5926 169.322 4.01588C210.379 -6.29864 256.008 3.58508 289.125 29.9631C299.222 38.0048 308.295 47.527 319.634 53.692C329.533 59.0597 341.12 61.283 351.722 57.0592C360.482 53.5682 366.184 51.8351 376.024 52.3649C396.394 53.5178 416.475 57.7259 435.596 64.8483C436.368 65.1305 437.14 65.4227 437.907 65.7149C487.754 84.794 530.602 122.7 552.874 171.41C553.465 172.698 554.037 173.995 554.592 175.302C567.871 206.335 572.672 242.706 558.022 272.951Z" fill="#374471"/>
<path opacity="0.1" d="M59.5425 367.911C83.6741 367.911 103.237 364.767 103.237 360.889C103.237 357.012 83.6741 353.868 59.5425 353.868C35.4108 353.868 15.8483 357.012 15.8483 360.889C15.8483 364.767 35.4108 367.911 59.5425 367.911Z" fill="#374471"/>
<path opacity="0.1" d="M451.523 406C494.311 406 528.998 402.63 528.998 398.473C528.998 394.316 494.311 390.947 451.523 390.947C408.735 390.947 374.049 394.316 374.049 398.473C374.049 402.63 408.735 406 451.523 406Z" fill="#374471"/>
<path d="M521.668 53.3552H63.6655C60.2513 53.3552 57.4835 56.1242 57.4835 59.54V313.739C57.4835 317.155 60.2513 319.924 63.6655 319.924H521.668C525.082 319.924 527.849 317.155 527.849 313.739V59.54C527.849 56.1242 525.082 53.3552 521.668 53.3552Z" fill="url(#paint0_linear)"/>
<path d="M520.975 57.1037H64.4128C60.9986 57.1037 58.2308 59.8727 58.2308 63.2885V312.852C58.2308 316.268 60.9986 319.037 64.4128 319.037H520.975C524.389 319.037 527.156 316.268 527.156 312.852V63.2885C527.156 59.8727 524.389 57.1037 520.975 57.1037Z" fill="white"/>
<path d="M520.975 57.1037H64.4128C60.9986 57.1037 58.2308 59.8727 58.2308 63.2885V312.852C58.2308 316.268 60.9986 319.037 64.4128 319.037H520.975C524.389 319.037 527.156 316.268 527.156 312.852V63.2885C527.156 59.8727 524.389 57.1037 520.975 57.1037Z" fill="white"/>
<path opacity="0.04" d="M520.975 57.1037H64.4128C60.9986 57.1037 58.2308 59.8727 58.2308 63.2885V312.852C58.2308 316.268 60.9986 319.037 64.4128 319.037H520.975C524.389 319.037 527.156 316.268 527.156 312.852V63.2885C527.156 59.8727 524.389 57.1037 520.975 57.1037Z" fill="white"/>
<path d="M524.776 54.098H60.6115C59.9801 54.098 59.3746 54.349 58.9281 54.7956C58.4817 55.2423 58.2308 55.8481 58.2308 56.4798V66.5467H527.137V56.4798C527.137 55.8515 526.889 55.2487 526.446 54.8026C526.004 54.3565 525.404 54.1032 524.776 54.098Z" fill="#5A5773"/>
<path d="M67.5953 63.541C69.3721 63.541 70.8125 62.1 70.8125 60.3224C70.8125 58.5448 69.3721 57.1037 67.5953 57.1037C65.8186 57.1037 64.3782 58.5448 64.3782 60.3224C64.3782 62.1 65.8186 63.541 67.5953 63.541Z" fill="white"/>
<path d="M76.257 63.541C78.0338 63.541 79.4741 62.1 79.4741 60.3224C79.4741 58.5448 78.0338 57.1037 76.257 57.1037C74.4802 57.1037 73.0398 58.5448 73.0398 60.3224C73.0398 62.1 74.4802 63.541 76.257 63.541Z" fill="white"/>
<path d="M84.9186 63.541C86.6954 63.541 88.1358 62.1 88.1358 60.3224C88.1358 58.5448 86.6954 57.1037 84.9186 57.1037C83.1418 57.1037 81.7014 58.5448 81.7014 60.3224C81.7014 62.1 83.1418 63.541 84.9186 63.541Z" fill="white"/>
<path opacity="0.2" d="M222.693 89.9587H96.8518V100.645H222.693V89.9587Z" fill="#374471"/>
<path opacity="0.1" d="M488.536 132.806H96.8518V297.185H488.536V132.806Z" fill="#5A5773"/>
<path opacity="0.1" d="M326.187 143.527H319.48V130.494C319.48 115.787 307.76 103.561 293.06 103.338C289.515 103.301 285.998 103.966 282.712 105.295C279.425 106.624 276.434 108.59 273.91 111.081C271.386 113.571 269.381 116.537 268.008 119.807C266.635 123.077 265.923 126.586 265.912 130.132V143.527H259.22C256.263 143.536 253.429 144.715 251.338 146.807C249.247 148.9 248.068 151.734 248.059 154.693V208.281C248.068 211.24 249.247 214.075 251.338 216.167C253.429 218.259 256.263 219.438 259.22 219.447H326.187C329.144 219.438 331.977 218.259 334.067 216.166C336.157 214.074 337.335 211.239 337.343 208.281V154.693C337.335 151.735 336.157 148.9 334.067 146.808C331.977 144.716 329.144 143.536 326.187 143.527ZM296.614 178.363V197.556C296.62 198.572 296.24 199.553 295.551 200.299C294.862 201.046 293.915 201.502 292.902 201.576C292.373 201.601 291.844 201.518 291.348 201.333C290.852 201.148 290.399 200.863 290.016 200.498C289.633 200.132 289.328 199.692 289.119 199.205C288.911 198.718 288.803 198.194 288.803 197.664V178.353C286.993 177.469 285.535 175.998 284.667 174.179C283.8 172.36 283.575 170.3 284.028 168.336C284.481 166.373 285.586 164.621 287.162 163.366C288.739 162.111 290.694 161.428 292.708 161.428C294.723 161.428 296.678 162.111 298.255 163.366C299.831 164.621 300.936 166.373 301.389 168.336C301.842 170.3 301.617 172.36 300.75 174.179C299.882 175.998 298.424 177.469 296.614 178.353V178.363ZM311.68 143.527H273.722V130.132C273.722 125.098 275.721 120.271 279.279 116.711C282.837 113.152 287.662 111.152 292.694 111.152C297.725 111.152 302.551 113.152 306.108 116.711C309.666 120.271 311.665 125.098 311.665 130.132L311.68 143.527Z" fill="black"/>
<path d="M326.187 142.537H319.48V129.503C319.48 114.797 307.76 102.571 293.06 102.348C289.515 102.311 285.998 102.976 282.712 104.304C279.425 105.633 276.434 107.6 273.91 110.09C271.386 112.581 269.381 115.547 268.008 118.816C266.635 122.086 265.923 125.596 265.912 129.142V142.537H259.22C256.263 142.546 253.429 143.725 251.338 145.817C249.247 147.909 248.068 150.744 248.059 153.703V207.291C248.068 210.249 249.247 213.084 251.338 215.176C253.429 217.268 256.263 218.448 259.22 218.457H326.187C329.144 218.448 331.977 217.268 334.067 215.176C336.157 213.084 337.335 210.249 337.343 207.291V153.703C337.335 150.745 336.157 147.91 334.067 145.817C331.977 143.725 329.144 142.546 326.187 142.537ZM296.614 177.372V196.565C296.62 197.581 296.24 198.562 295.551 199.309C294.862 200.055 293.915 200.512 292.902 200.586C292.373 200.611 291.844 200.528 291.348 200.343C290.852 200.157 290.399 199.873 290.016 199.507C289.633 199.142 289.328 198.702 289.119 198.215C288.911 197.728 288.803 197.204 288.803 196.674V177.362C286.993 176.479 285.535 175.008 284.667 173.188C283.8 171.369 283.575 169.31 284.028 167.346C284.481 165.382 285.586 163.63 287.162 162.376C288.739 161.121 290.694 160.438 292.708 160.438C294.723 160.438 296.678 161.121 298.255 162.376C299.831 163.63 300.936 165.382 301.389 167.346C301.842 169.31 301.617 171.369 300.75 173.188C299.882 175.008 298.424 176.479 296.614 177.362V177.372ZM311.68 142.537H273.722V129.142C273.722 124.108 275.721 119.28 279.279 115.721C282.837 112.162 287.662 110.162 292.694 110.162C297.725 110.162 302.551 112.162 306.108 115.721C309.666 119.28 311.665 124.108 311.665 129.142L311.68 142.537Z" fill="#374471"/>
<path opacity="0.1" d="M488.536 116.985H448.89V126.349H488.536V116.985Z" fill="#5A5773"/>
<path d="M502.028 400.741C501.767 399.429 501.32 398.16 500.701 396.973L494.762 388.099H494.797C494.797 388.099 493.861 383.643 494.797 381.454C495.732 379.265 491.461 373.883 491.461 373.883C491.461 373.883 490.941 372.531 492.297 370.867C493.653 369.204 491.461 364.331 491.461 364.331C491.461 364.331 490.421 354.155 490.317 352.6C490.213 351.045 489.377 342.429 489.377 342.429L487.397 324.162L483.873 275.749L483.809 274.843C484.244 274.63 484.477 274.496 484.477 274.496L483.774 247.727L484.383 247.177C489.699 242.364 501.959 231.223 501.835 230.98C501.711 230.737 500.35 212.376 500.192 207.781C500.056 204.515 499.342 201.3 498.083 198.283C497.776 197.674 496.89 193.659 496.524 191.96C496.425 191.495 496.361 191.202 496.361 191.202C496.361 191.202 492.767 184.349 493.079 181.235C493.391 178.12 494.015 175.788 486.353 174.698C486.353 174.698 479.919 173.738 476.088 171.118C473.822 169.549 471.346 168.309 468.733 167.434C468.733 167.434 466.585 163.473 465.09 164.814C464.457 163.401 463.984 161.921 463.679 160.402L463.635 160.125C466.472 158.146 468.514 155.222 469.396 151.876C469.445 151.687 469.485 151.494 469.53 151.306C469.678 151.356 469.833 151.385 469.99 151.39C471.292 151.39 472.093 149.939 473.311 149.479C473.806 149.286 474.415 149.256 474.796 148.865C474.921 148.714 475.015 148.539 475.071 148.351C475.127 148.163 475.145 147.966 475.122 147.771C475.135 147.635 475.135 147.5 475.122 147.364C475.125 147.317 475.125 147.269 475.122 147.221V147.27C474.791 145.468 473.395 143.869 473.549 142.036C473.697 140.313 475.212 138.798 475.088 137.119C475.086 136.987 475.075 136.854 475.053 136.723V136.783C474.869 136.127 474.529 135.526 474.063 135.03C473.53 134.303 472.831 133.716 472.024 133.316C471.336 133.014 470.539 132.945 469.896 132.583C468.005 131.553 468.01 128.87 466.887 127.037C466.405 126.273 465.722 125.656 464.912 125.255C464.103 124.854 463.198 124.684 462.298 124.765C460.893 124.903 459.621 125.651 458.23 125.894C456.329 126.23 454.394 125.611 452.592 124.903C450.791 124.195 448.964 123.418 447.029 123.418C445.094 123.418 443 124.408 442.416 126.235C442.104 127.226 442.258 128.29 442.02 129.295C441.595 131.068 440.04 132.336 438.432 133.217C437.442 133.767 436.264 134.396 435.957 135.436C435.957 135.406 435.957 135.381 435.957 135.356C435.935 135.439 435.918 135.524 435.908 135.609C435.898 135.719 435.898 135.83 435.908 135.941C435.908 136.654 436.284 137.332 436.536 138.011C437.007 139.301 436.996 140.718 436.506 142.002C436.14 142.943 435.517 143.769 435.16 144.705C434.992 145.141 434.882 145.598 434.834 146.062V145.983C434.821 146.194 434.821 146.406 434.834 146.617C434.827 147.34 434.997 148.054 435.328 148.696C435.556 149.14 435.869 149.534 436.251 149.855C436.633 150.175 437.075 150.416 437.551 150.563C438.541 150.791 439.159 149.821 440.204 150.068C440.391 150.113 440.574 150.171 440.753 150.241C440.788 150.464 440.822 150.687 440.862 150.905C441.493 154.238 443.269 157.245 445.881 159.407C445.881 159.526 445.92 159.645 445.935 159.769C446.251 161.743 446.389 163.742 446.346 165.74C446.346 165.74 444.787 163.458 442.649 167.865C442.649 167.865 437.071 171.083 435.145 171.45C433.22 171.816 426.385 174.198 426.385 174.198C425.354 174.944 424.113 175.344 422.841 175.342C420.708 175.342 418.936 180.011 419.193 182.552C419.45 185.092 419.04 186.964 417.055 187.068C415.07 187.172 416.154 191.197 416.169 191.267L415.986 192.133C415.6 193.906 414.758 197.709 414.461 198.303C413.203 201.32 412.487 204.535 412.348 207.801C412.195 212.396 410.863 230.688 410.71 231C410.606 231.203 419.005 238.883 424.91 244.251L425.766 245.023L423.049 270.416C423.128 271.394 423.419 272.344 423.901 273.199C424.383 274.054 425.044 274.794 425.84 275.368C425.84 275.665 425.84 275.967 425.811 276.279C425.692 279.25 425.454 282.845 424.979 283.786C424.148 285.449 424.355 294.372 424.355 294.372C424.355 294.372 423.519 312.536 422.48 314.511C421.44 316.487 421.227 320.632 421.539 321.444C421.851 322.256 420.495 344.068 420.495 344.068L419.455 353.828C419.455 353.828 419.767 363.167 418.827 363.375C417.886 363.583 417.367 370.021 417.367 370.021C417.367 370.021 414.036 374.586 415.491 376.245C416.946 377.904 415.278 378.637 415.125 379.048C414.971 379.459 411.947 381.028 414.135 386.832C414.155 386.889 414.178 386.945 414.204 387C412.155 389.847 405.661 399.033 406.057 400.429C406.349 401.318 406.969 402.061 407.789 402.509C409.319 403.425 411.942 403.851 416.115 402.509C423.044 400.276 422.549 398.666 422.549 398.666C422.584 397.914 422.907 397.204 423.45 396.683C423.994 396.161 424.716 395.868 425.469 395.864C428.335 395.656 430.473 393.012 430.473 393.012L430.136 391.759L429.676 390.026C429.731 389.531 430.082 388.664 431.656 388.184C434.056 387.456 433.428 382.89 433.428 382.89C433.428 382.89 433.22 378.117 434.259 377.493C435.299 376.869 434.888 368.981 434.888 368.981C434.888 368.981 436.036 363.271 437.699 359.429C439.362 355.586 441.352 332.758 441.352 332.758C441.352 332.758 442.703 321.548 443.955 318.329C445.208 315.11 446.356 306.083 446.356 306.083C446.356 306.083 454.072 291.134 454.171 287.811C454.171 287.811 455.161 284.697 456.151 288.123C457.141 291.55 459.923 299.75 459.923 299.75L462.63 309.817L465.862 324.865L467.951 337.532C467.951 337.532 467.634 342.306 468.446 343.969C469.257 345.633 470.425 349.466 469.802 350.194C469.178 350.922 471.049 354.348 471.574 355.071C472.098 355.794 471.574 371.159 471.574 371.159C471.574 371.159 473.969 384.237 477.409 386.51C477.649 386.668 477.904 386.8 478.171 386.906C478.122 388.322 478.072 390.219 478.137 391.209C478.129 391.431 478.166 391.651 478.246 391.858C478.557 392.274 482.101 395.076 482.834 395.076C483.566 395.076 486.165 396.894 486.274 397.775C486.383 398.657 493.891 402.39 494.955 402.499C496.019 402.608 501.177 403.534 501.884 402.083C502.059 401.659 502.109 401.193 502.028 400.741ZM483.581 213.703L484.116 214.164C484.116 214.164 484.665 218.447 485.056 219.73C485.447 221.012 484.977 223.508 484.977 223.508C485.013 224.439 485.198 225.359 485.526 226.231C485.992 227.167 484.586 229.202 484.586 229.202H483.334L482.943 213.168L483.581 213.703ZM446.346 165.83V165.736C446.336 165.765 446.331 165.8 446.331 165.83H446.346ZM427.117 227.553C426.925 227.139 426.896 226.666 427.038 226.231C427.149 225.996 427.237 225.751 427.3 225.498C427.454 224.848 427.55 224.185 427.587 223.518C427.588 223.509 427.588 223.501 427.587 223.493C427.543 223.255 427.142 220.958 427.513 219.739C427.884 218.521 428.449 214.174 428.449 214.174L428.805 213.872L429.632 213.154C429.632 213.154 429.632 212.886 429.691 212.446C429.864 216.209 430.003 220.368 429.78 220.576C429.364 220.987 427.85 225.033 428.216 225.191C428.335 225.246 428.172 226.865 427.894 229.044C427.583 228.576 427.323 228.076 427.117 227.553Z" fill="url(#paint1_linear)"/>
<path d="M467.01 169.786V175.946L454.379 182.299C454.379 182.299 441.837 174.708 444.93 171.688C446.91 169.776 446.529 164.527 445.995 160.917C445.683 158.818 445.321 157.278 445.321 157.278C445.321 157.278 467.852 150.841 464.446 155.728C463.308 157.362 463.219 159.476 463.6 161.571C464.372 165.726 467.01 169.786 467.01 169.786Z" fill="#C37098"/>
<path d="M432.408 230.024L430.78 250.089C430.78 250.089 428.34 247.875 425.182 244.993C419.327 239.65 411.012 232.01 411.11 231.807C411.264 231.495 412.595 213.292 412.739 208.717C412.874 205.469 413.581 202.271 414.828 199.269C415.125 198.675 415.961 194.891 416.312 193.124C416.431 192.574 416.505 192.218 416.505 192.218L419.238 191.118C419.238 191.118 430.621 203.824 430.621 204.057C430.621 204.29 429.844 214.05 429.844 214.05L429.038 214.753L428.686 215.055C428.686 215.055 428.142 219.319 427.756 220.596C427.37 221.874 427.785 224.092 427.83 224.33C427.794 224.997 427.699 225.66 427.548 226.31C427.483 226.561 427.395 226.804 427.285 227.038C427.146 227.472 427.174 227.942 427.365 228.356C427.585 228.93 427.87 229.476 428.216 229.985L432.408 230.024Z" fill="#3F3D56"/>
<path d="M501.399 231.807C501.518 232.05 489.377 243.137 484.116 247.925L481.73 250.089L480.116 230.024H484.299C484.299 230.024 485.695 228.009 485.229 227.078C484.905 226.21 484.723 225.295 484.69 224.369C484.69 224.369 485.15 221.893 484.764 220.611C484.378 219.328 483.834 215.07 483.834 215.07L483.304 214.614L482.675 214.065C482.675 214.065 481.898 204.305 481.898 204.072C481.898 203.839 493.282 191.133 493.282 191.133L495.994 192.218C495.994 192.218 496.054 192.51 496.153 192.975C496.519 194.664 497.395 198.66 497.697 199.269C498.943 202.271 499.65 205.469 499.786 208.717C499.914 213.292 501.241 231.495 501.399 231.807Z" fill="#3F3D56"/>
<path d="M501.449 402.118C500.721 403.564 495.613 402.613 494.559 402.534C493.505 402.455 486.061 398.706 485.957 397.83C485.853 396.953 483.274 395.146 482.552 395.146C481.829 395.146 478.32 392.353 478.008 391.942C477.929 391.737 477.894 391.518 477.904 391.298C477.795 389.6 478.008 385.227 478.008 385.227L492.98 386.054L500.256 397.003C500.869 398.184 501.312 399.446 501.573 400.751C501.661 401.209 501.618 401.683 501.449 402.118Z" fill="#3F3D56"/>
<path opacity="0.1" d="M501.449 402.118C500.721 403.564 495.613 402.613 494.559 402.534C493.505 402.455 486.061 398.706 485.957 397.83C485.853 396.953 483.274 395.146 482.552 395.146C481.829 395.146 478.32 392.353 478.008 391.942C477.929 391.737 477.894 391.518 477.904 391.298C477.795 389.6 478.008 385.227 478.008 385.227L492.98 386.054L500.256 397.003C500.869 398.184 501.312 399.446 501.573 400.751C501.661 401.209 501.618 401.683 501.449 402.118Z" fill="black"/>
<path opacity="0.1" d="M501.449 402.118C500.721 403.564 495.613 402.613 494.559 402.534C493.505 402.455 486.061 398.706 485.957 397.83C485.853 396.953 483.274 395.146 482.552 395.146C481.829 395.146 478.32 392.353 478.008 391.942C477.929 391.737 477.894 391.518 477.904 391.298L482.755 394.368C482.755 394.368 485.853 396.349 486.68 397.523C487.506 398.696 494.02 401.137 494.559 401.187C494.96 401.227 499.236 400.405 501.573 400.751C501.661 401.209 501.618 401.683 501.449 402.118Z" fill="black"/>
<path d="M430.671 393.081C430.671 393.081 428.552 395.715 425.721 395.918C424.974 395.924 424.258 396.216 423.72 396.735C423.182 397.254 422.864 397.959 422.831 398.706C422.831 398.706 423.326 400.31 416.481 402.534C412.348 403.866 409.749 403.445 408.235 402.534C407.422 402.085 406.809 401.346 406.517 400.464C406.052 398.815 415.189 386.262 415.189 386.262L423.504 385.767L429.443 388.451L430.354 391.853L430.671 393.081Z" fill="#3F3D56"/>
<path opacity="0.1" d="M430.671 393.081C430.671 393.081 428.552 395.715 425.721 395.918C424.974 395.924 424.258 396.216 423.72 396.735C423.182 397.254 422.864 397.959 422.831 398.706C422.831 398.706 423.326 400.31 416.481 402.534C412.348 403.866 409.749 403.445 408.235 402.534C407.422 402.085 406.809 401.346 406.517 400.464C406.052 398.815 415.189 386.262 415.189 386.262L423.504 385.767L429.443 388.451L430.354 391.853L430.671 393.081Z" fill="black"/>
<path opacity="0.1" d="M430.671 393.081C430.671 393.081 428.553 395.715 425.722 395.918C424.974 395.924 424.258 396.216 423.72 396.735C423.182 397.254 422.864 397.959 422.831 398.706C422.831 398.706 423.326 400.31 416.481 402.534C412.348 403.866 409.75 403.445 408.235 402.534C412.13 402.128 420.737 399.667 421.599 398.815C422.633 397.78 423.925 394.938 424.801 394.888C425.41 394.849 428.503 392.987 430.359 391.833L430.671 393.081Z" fill="black"/>
<path d="M494.425 381.563C493.495 383.732 494.425 388.174 494.425 388.174C494.425 388.174 480.567 388.897 477.181 386.624C473.796 384.351 471.4 371.333 471.4 371.333C471.4 371.333 471.895 356.047 471.4 355.324C470.905 354.601 469.025 351.194 469.643 350.471C470.262 349.748 469.148 345.925 468.302 344.271C467.456 342.617 467.807 337.869 467.807 337.869L465.738 325.262L462.541 310.287L459.823 300.265C459.823 300.265 457.037 292.105 456.092 288.698C455.146 285.291 454.146 288.386 454.146 288.386C454.047 291.694 446.405 306.569 446.405 306.569C446.405 306.569 445.267 315.556 444.03 318.755C442.792 321.954 441.446 333.115 441.446 333.115C441.446 333.115 439.466 355.839 437.833 359.661C436.2 363.484 435.076 369.164 435.076 369.164C435.076 369.164 435.492 377.017 434.457 377.636C433.423 378.255 433.591 383.009 433.591 383.009C433.591 383.009 434.21 387.55 431.834 388.278C429.458 389.006 429.854 390.551 429.854 390.551C429.854 390.551 416.639 392.719 414.471 386.931C412.303 381.142 415.298 379.602 415.461 379.186C415.624 378.77 417.273 378.052 415.827 376.393C414.382 374.735 417.683 370.199 417.683 370.199C417.683 370.199 418.203 363.796 419.129 363.588C420.054 363.38 419.752 354.086 419.752 354.086L420.782 344.375C420.782 344.375 422.128 322.682 421.816 321.855C421.504 321.028 421.712 316.903 422.747 314.922C423.781 312.942 424.603 294.877 424.603 294.877C424.603 294.877 424.395 285.999 425.222 284.345C425.716 283.409 425.924 279.809 426.043 276.873C426.132 274.63 426.152 272.773 426.152 272.773L437.714 268.435L452.563 263.686L465.055 269.678L483.334 273.189L483.561 276.343L487.051 324.529L489.031 342.707C489.031 342.707 489.857 351.278 489.961 352.828C490.065 354.378 491.094 364.504 491.094 364.504C491.094 364.504 493.262 369.357 491.921 371.011C490.58 372.665 491.094 373.982 491.094 373.982C491.094 373.982 495.356 379.394 494.425 381.563Z" fill="#3F3D56"/>
<path opacity="0.1" d="M464.456 155.728C463.318 157.362 463.229 159.476 463.61 161.571C461.009 163.407 457.877 164.337 454.696 164.218C451.515 164.099 448.461 162.938 446.005 160.912C445.693 158.813 445.331 157.273 445.331 157.273C445.331 157.273 467.861 150.846 464.456 155.728Z" fill="black"/>
<path d="M469.722 149.41C469.722 152.279 468.872 155.084 467.278 157.47C465.685 159.856 463.42 161.716 460.77 162.814C458.12 163.912 455.204 164.199 452.391 163.639C449.578 163.08 446.994 161.698 444.966 159.669C442.938 157.64 441.557 155.054 440.997 152.24C440.437 149.426 440.725 146.508 441.822 143.857C442.92 141.206 444.779 138.94 447.164 137.346C449.548 135.752 452.352 134.901 455.22 134.901C457.127 134.892 459.017 135.261 460.781 135.987C462.545 136.712 464.147 137.781 465.495 139.13C466.844 140.479 467.912 142.082 468.637 143.846C469.363 145.611 469.732 147.502 469.722 149.41Z" fill="#C37098"/>
<path opacity="0.1" d="M472.742 173.52L467.99 258.17L442.179 252.748L437.066 218.813L442.129 173.257L445.94 173.747L452.662 174.604L459.319 175.015L466.535 174.213L472.742 173.52Z" fill="black"/>
<path d="M472.742 174.139L467.99 258.789L442.179 253.367L437.066 219.432L442.129 173.881L445.94 174.366L452.662 175.223L459.319 175.634L466.535 174.832L472.742 174.139Z" fill="#374471"/>
<path d="M451.523 176.411L460.818 176.723L458.205 180.383C458.205 180.383 458.388 187.776 459.63 189.895C460.873 192.015 460.507 224.756 460.507 224.756L458.032 229.455L453.8 224.186L453.854 180.957L451.523 176.411Z" fill="#3F3D56"/>
<path opacity="0.1" d="M451.523 176.411L460.818 176.723L458.205 180.383C458.205 180.383 458.388 187.776 459.63 189.895C460.873 192.015 460.507 224.756 460.507 224.756L458.032 229.455L453.8 224.186L453.854 180.957L451.523 176.411Z" fill="black"/>
<path opacity="0.1" d="M466.08 166.805L457.408 176.412L462.363 181.576L470.574 173.569L466.08 166.805Z" fill="black"/>
<path d="M466.08 166.186L457.408 175.793L462.363 180.957L470.574 172.95L466.08 166.186Z" fill="#374471"/>
<path opacity="0.1" d="M453.746 175.946L444.965 167.167L444.139 171.762L448.167 181.834L453.746 175.946Z" fill="black"/>
<path d="M454.052 175.327L445.277 166.548L444.45 171.143L448.479 181.215L454.052 175.327Z" fill="#374471"/>
<path opacity="0.1" d="M483.606 276.358C479.392 278.367 474.878 279.673 470.242 280.225C461.724 281.31 456.151 270.465 456.151 270.465L452.899 274.699C451.865 279.195 436.12 280.329 429.721 278.626C428.393 278.298 427.144 277.707 426.048 276.888C426.137 274.645 426.157 272.788 426.157 272.788L437.719 268.45L452.568 263.701L465.06 269.693L483.339 273.204L483.606 276.358Z" fill="black"/>
<path opacity="0.1" d="M472.742 174.144L467.995 258.789L442.179 253.367L437.056 219.437L442.114 173.881L445.925 174.376C445.828 176.036 445.641 177.689 445.366 179.328C444.747 182.225 448.568 202.78 448.568 202.78C448.568 202.78 455.829 225.83 459.096 222.507C462.363 219.185 467.015 201.641 467.015 201.641C470.168 195.134 467.07 176.882 466.837 176.516C466.675 175.976 466.575 175.419 466.54 174.857L472.742 174.144Z" fill="black"/>
<path opacity="0.1" d="M483.893 239.646L484.111 247.94L481.725 250.104L480.116 230.024H483.68L483.893 239.646Z" fill="black"/>
<path opacity="0.1" d="M427.835 224.345C427.798 225.012 427.704 225.674 427.553 226.325C427.553 226.142 427.553 226.038 427.513 226.023C427.365 225.984 427.543 225.226 427.835 224.345Z" fill="black"/>
<path opacity="0.1" d="M432.408 230.024L430.78 250.089C430.78 250.089 428.34 247.875 425.182 244.993L425.558 241.438C425.558 241.438 426.89 232.703 427.375 228.395C427.595 228.969 427.88 229.516 428.226 230.024H432.408Z" fill="black"/>
<path d="M446.41 166.855C446.41 166.855 444.866 164.582 442.748 168.969C442.748 168.969 437.224 172.173 435.324 172.534C433.423 172.896 426.662 175.273 426.662 175.273C425.641 176.011 424.413 176.408 423.153 176.407C421.034 176.407 419.277 181.056 419.535 183.587C419.792 186.117 419.381 187.979 417.421 188.083C415.461 188.187 416.54 192.262 416.54 192.262L429.602 207.241C429.602 207.241 430.429 221.032 430.018 221.448C429.607 221.864 428.107 225.904 428.469 226.043C428.83 226.182 426.489 241.433 426.489 241.433L423.341 271.03C423.341 271.03 423.341 275.982 429.745 277.69C436.15 279.398 451.904 278.269 452.919 273.773L456.171 269.534C456.171 269.534 461.744 280.384 470.262 279.299C478.78 278.215 484.205 275.115 484.205 275.115L483.274 239.646L482.656 214.08L495.955 192.218C495.955 192.218 492.391 185.399 492.703 182.314C493.015 179.229 493.629 176.892 486.041 175.807C486.041 175.807 479.641 174.852 475.87 172.242C473.629 170.685 471.179 169.452 468.594 168.578C468.594 168.578 466.466 164.616 464.986 165.973C464.986 165.973 466.471 171.574 466.347 172.41C466.223 173.247 466.58 177.03 466.812 177.422C467.045 177.813 470.143 196.04 466.99 202.547C466.99 202.547 462.363 220.091 459.071 223.414C455.78 226.736 448.544 203.686 448.544 203.686C448.544 203.686 444.723 183.126 445.341 180.234C445.96 177.342 446.41 166.855 446.41 166.855Z" fill="#3F3D56"/>
<path d="M457.458 234.57C458.712 234.57 459.73 233.552 459.73 232.297C459.73 231.042 458.712 230.024 457.458 230.024C456.203 230.024 455.186 231.042 455.186 232.297C455.186 233.552 456.203 234.57 457.458 234.57Z" fill="#3F3D56"/>
<path d="M457.458 245.286C458.712 245.286 459.73 244.268 459.73 243.013C459.73 241.757 458.712 240.74 457.458 240.74C456.203 240.74 455.186 241.757 455.186 243.013C455.186 244.268 456.203 245.286 457.458 245.286Z" fill="#3F3D56"/>
<path opacity="0.1" d="M457.458 234.57C458.712 234.57 459.73 233.552 459.73 232.297C459.73 231.042 458.712 230.024 457.458 230.024C456.203 230.024 455.186 231.042 455.186 232.297C455.186 233.552 456.203 234.57 457.458 234.57Z" fill="black"/>
<path opacity="0.1" d="M457.458 245.286C458.712 245.286 459.73 244.268 459.73 243.013C459.73 241.757 458.712 240.74 457.458 240.74C456.203 240.74 455.186 241.757 455.186 243.013C455.186 244.268 456.203 245.286 457.458 245.286Z" fill="black"/>
<path opacity="0.1" d="M477.874 378.463C477.874 378.463 487.199 379.186 488.125 379.909C489.05 380.632 477.874 378.463 477.874 378.463Z" fill="black" stroke="#374471" stroke-miterlimit="10"/>
<path opacity="0.1" d="M422.356 371.13C422.356 371.13 424.336 373.606 423.494 374.745C422.653 375.883 422.356 371.13 422.356 371.13Z" fill="black" stroke="#374471" stroke-miterlimit="10"/>
<path opacity="0.1" d="M424.732 380.058C424.732 380.058 428.345 377.681 429.79 379.261C431.235 380.84 424.732 380.058 424.732 380.058Z" fill="black" stroke="#374471" stroke-miterlimit="10"/>
<path opacity="0.1" d="M469.723 149.41C469.725 150.648 469.569 151.881 469.257 153.079C468.952 152.939 468.697 152.71 468.525 152.422C468.353 152.133 468.274 151.799 468.297 151.465C468.361 150.875 468.752 150.336 468.668 149.751C468.545 148.85 467.456 148.484 466.882 147.77C466.174 146.909 466.327 145.656 466.387 144.542C466.446 143.428 466.164 142.066 465.12 141.685C464.808 141.571 464.466 141.561 464.164 141.432C463.343 141.086 463.09 140.066 462.541 139.362C461.442 137.946 459.259 137.976 457.591 138.649C456.865 138.998 456.122 139.308 455.364 139.58C454.985 139.714 454.582 139.768 454.18 139.738C453.779 139.708 453.388 139.596 453.033 139.407C452.706 139.199 452.444 138.912 452.107 138.704C450.989 138.03 449.524 138.704 448.554 139.57C447.583 140.437 446.806 141.601 445.584 142.13C445.034 142.378 444.356 142.527 444.099 143.061C443.972 143.353 443.917 143.67 443.941 143.987C443.941 145.914 444.168 147.87 443.767 149.756C443.51 150.969 442.659 152.346 441.426 152.197C441.273 152.175 441.122 152.136 440.976 152.083C440.605 150.1 440.651 148.061 441.113 146.097C441.574 144.133 442.439 142.287 443.654 140.676C444.869 139.065 446.406 137.726 448.167 136.743C449.929 135.76 451.875 135.156 453.883 134.969C455.891 134.781 457.916 135.015 459.829 135.655C461.742 136.295 463.5 137.326 464.992 138.685C466.483 140.043 467.675 141.697 468.491 143.542C469.308 145.387 469.73 147.382 469.732 149.4L469.723 149.41Z" fill="black"/>
<path d="M440.327 151.262C440.699 151.346 441.05 151.539 441.431 151.588C442.664 151.737 443.515 150.36 443.772 149.147C444.173 147.26 443.965 145.305 443.951 143.378C443.923 143.062 443.976 142.743 444.104 142.452C444.386 141.918 445.064 141.769 445.589 141.521C446.787 140.987 447.569 139.848 448.559 138.961C449.548 138.075 450.989 137.421 452.107 138.095C452.439 138.293 452.706 138.59 453.033 138.798C453.39 138.984 453.782 139.095 454.183 139.125C454.585 139.155 454.988 139.102 455.369 138.971C456.136 138.743 456.854 138.342 457.591 138.04C459.244 137.367 461.432 137.342 462.541 138.748C463.09 139.457 463.343 140.472 464.164 140.818C464.466 140.947 464.808 140.962 465.12 141.076C466.164 141.467 466.431 142.819 466.387 143.933C466.342 145.047 466.194 146.3 466.882 147.161C467.456 147.865 468.545 148.231 468.668 149.142C468.748 149.726 468.361 150.271 468.297 150.855C468.282 151.073 468.311 151.291 468.381 151.497C468.451 151.703 468.561 151.893 468.706 152.056C468.85 152.219 469.025 152.352 469.221 152.447C469.416 152.541 469.629 152.596 469.846 152.608C471.133 152.608 471.93 151.167 473.133 150.707C473.628 150.514 474.227 150.484 474.618 150.093C474.763 149.905 474.866 149.687 474.919 149.456C474.972 149.224 474.974 148.984 474.924 148.751C474.682 146.854 473.162 145.206 473.326 143.304C473.479 141.482 475.167 139.892 474.811 138.1C474.629 137.439 474.289 136.832 473.821 136.332C473.29 135.613 472.599 135.027 471.801 134.624C471.113 134.326 470.316 134.257 469.688 133.896C467.817 132.871 467.822 130.197 466.718 128.374C466.244 127.621 465.573 127.013 464.777 126.617C463.98 126.22 463.09 126.051 462.204 126.126C460.813 126.265 459.551 127.003 458.175 127.25C456.29 127.587 454.379 126.968 452.592 126.26C450.806 125.552 448.999 124.775 447.084 124.775C445.168 124.775 443.094 125.765 442.51 127.577C442.203 128.568 442.357 129.627 442.119 130.623C441.703 132.39 440.139 133.648 438.565 134.525C437.482 135.129 436.18 135.822 436.051 137.055C435.967 137.837 436.398 138.54 436.67 139.298C437.133 140.58 437.122 141.985 436.64 143.259C436.279 144.195 435.675 145.017 435.309 145.948C435.049 146.58 434.926 147.26 434.948 147.943C434.97 148.626 435.137 149.296 435.437 149.91C435.668 150.357 435.988 150.753 436.377 151.072C436.766 151.391 437.216 151.628 437.699 151.767C438.674 151.999 439.288 151.034 440.327 151.262Z" fill="#3F3D56"/>
<g opacity="0.1">
<path opacity="0.1" d="M443.772 148.068C443.515 149.281 442.659 150.657 441.426 150.509C441.045 150.459 440.699 150.266 440.323 150.182C439.288 149.954 438.674 150.925 437.699 150.677C437.215 150.538 436.764 150.302 436.375 149.983C435.985 149.663 435.664 149.268 435.432 148.82C435.174 148.316 435.017 147.766 434.972 147.201C434.874 148.078 435.034 148.964 435.432 149.751C435.664 150.199 435.985 150.594 436.375 150.914C436.764 151.233 437.215 151.469 437.699 151.608C438.689 151.836 439.288 150.865 440.323 151.113C440.685 151.239 441.053 151.347 441.426 151.435C442.659 151.588 443.515 150.212 443.772 148.999C443.975 147.927 444.055 146.835 444.01 145.745C444.005 146.525 443.926 147.303 443.772 148.068Z" fill="black"/>
<path opacity="0.1" d="M436.992 140.61C437.055 139.799 436.943 138.983 436.665 138.219C436.441 137.71 436.251 137.187 436.096 136.654C436.074 136.737 436.058 136.821 436.046 136.906C435.962 137.684 436.398 138.392 436.665 139.149C436.838 139.62 436.948 140.111 436.992 140.61Z" fill="black"/>
<path opacity="0.1" d="M474.806 138.001C474.573 139.407 473.435 140.729 473.321 142.21C473.294 142.463 473.294 142.719 473.321 142.972C473.568 141.244 475.098 139.714 474.806 138.001Z" fill="black"/>
<path opacity="0.1" d="M474.89 148.449C474.848 148.656 474.75 148.848 474.608 149.004C474.242 149.395 473.618 149.424 473.123 149.618C471.92 150.078 471.143 151.534 469.836 151.519C469.502 151.5 469.181 151.38 468.916 151.175C468.651 150.97 468.454 150.689 468.352 150.37C468.321 150.478 468.298 150.587 468.282 150.697C468.268 150.914 468.297 151.131 468.368 151.337C468.438 151.542 468.549 151.732 468.693 151.894C468.837 152.057 469.012 152.189 469.207 152.284C469.402 152.378 469.615 152.433 469.832 152.445C471.123 152.445 471.915 151.004 473.118 150.548C473.613 150.355 474.217 150.326 474.603 149.934C474.748 149.746 474.851 149.529 474.904 149.297C474.957 149.066 474.959 148.825 474.91 148.593C474.905 148.533 474.895 148.493 474.89 148.449Z" fill="black"/>
<path opacity="0.1" d="M468.683 148.038C468.559 147.137 467.471 146.77 466.896 146.057C466.544 145.589 466.353 145.019 466.352 144.433C466.312 145.354 466.327 146.295 466.896 146.988C467.466 147.681 468.332 147.978 468.609 148.692C468.679 148.481 468.704 148.259 468.683 148.038Z" fill="black"/>
<path opacity="0.1" d="M466.382 142.853C466.421 141.739 466.154 140.378 465.11 139.996C464.803 139.882 464.461 139.867 464.159 139.744C463.338 139.397 463.08 138.377 462.536 137.674C461.432 136.263 459.249 136.287 457.586 136.961C456.844 137.263 456.136 137.664 455.364 137.892C454.985 138.026 454.582 138.079 454.18 138.05C453.779 138.02 453.388 137.907 453.033 137.718C452.706 137.51 452.439 137.223 452.107 137.015C450.984 136.342 449.519 137.015 448.554 137.882C447.588 138.748 446.806 139.907 445.584 140.442C445.03 140.689 444.356 140.838 444.069 141.373C443.943 141.664 443.891 141.982 443.916 142.299C443.916 142.492 443.916 142.685 443.916 142.878C443.922 142.679 443.971 142.483 444.059 142.304C444.347 141.769 445.02 141.62 445.574 141.373C446.772 140.838 447.554 139.699 448.544 138.813C449.534 137.926 450.974 137.273 452.097 137.946C452.429 138.144 452.696 138.441 453.023 138.644C453.378 138.834 453.769 138.948 454.17 138.977C454.572 139.007 454.975 138.953 455.354 138.818C456.111 138.548 456.853 138.239 457.577 137.892C459.235 137.218 461.417 137.189 462.526 138.6C463.07 139.303 463.328 140.323 464.149 140.67C464.451 140.798 464.793 140.813 465.1 140.927C465.946 141.244 466.283 142.195 466.357 143.136L466.382 142.853Z" fill="black"/>
</g>
<g opacity="0.1">
<path opacity="0.1" d="M442.005 148.038C442.034 147.216 442.328 146.426 442.844 145.785C443.36 145.145 444.069 144.69 444.866 144.487C447.073 143.948 449.389 144.053 451.538 144.79C456.235 146.344 450.944 151.94 450.944 151.94C450.944 151.94 447.425 155.406 444.144 152.985C443.174 152.252 442.496 151.199 442.228 150.014C442.067 149.368 441.992 148.703 442.005 148.038Z" fill="black"/>
<path opacity="0.1" d="M467.827 148.038C467.798 147.215 467.503 146.424 466.986 145.784C466.47 145.144 465.759 144.689 464.961 144.487C462.756 143.949 460.442 144.054 458.294 144.79C453.597 146.344 458.888 151.94 458.888 151.94C458.888 151.94 462.402 155.406 465.689 152.985C466.658 152.252 467.336 151.199 467.604 150.014C467.765 149.368 467.84 148.703 467.827 148.038Z" fill="black"/>
<path opacity="0.1" d="M450.652 144.334V144.567H459.23V144.289L450.652 144.334Z" fill="black"/>
<path opacity="0.1" d="M453.389 146.815H453.661V146.027C453.661 146.027 454.533 145.349 455.978 146.027V146.731H456.473V146.27H456.23C456.23 146.27 456.329 145.314 454.716 145.468C454.716 145.468 453.419 145.344 453.449 146.166H453.152L453.389 146.815Z" fill="black"/>
</g>
<path d="M442.005 147.716C442.034 146.894 442.328 146.104 442.844 145.463C443.36 144.823 444.069 144.368 444.866 144.166C447.074 143.629 449.388 143.734 451.538 144.468C456.235 146.027 450.944 151.618 450.944 151.618C450.944 151.618 447.425 155.084 444.144 152.663C443.172 151.932 442.493 150.878 442.228 149.692C442.067 149.046 441.992 148.382 442.005 147.716Z" fill="#374471"/>
<path d="M467.827 147.716C467.798 146.894 467.503 146.103 466.986 145.462C466.47 144.822 465.759 144.367 464.961 144.166C462.755 143.629 460.442 143.734 458.294 144.468C453.597 146.028 458.888 151.618 458.888 151.618C458.888 151.618 462.402 155.084 465.689 152.663C466.66 151.932 467.339 150.878 467.604 149.692C467.765 149.046 467.84 148.382 467.827 147.716Z" fill="#374471"/>
<path d="M450.652 144.022V144.26H459.23V143.977L450.652 144.022Z" fill="#374471"/>
<path d="M453.389 146.503H453.661V145.716C453.661 145.716 454.533 145.042 455.978 145.716V146.424H456.473V145.958H456.23C456.23 145.958 456.329 145.007 454.716 145.156C454.716 145.156 453.419 145.037 453.449 145.854H453.152L453.389 146.503Z" fill="#374471"/>
<path d="M60.9482 226.39H58.1368V289.723H60.9482V226.39Z" fill="#535461"/>
<path d="M78.6179 289.53L78.4397 292.382L78.1922 296.408L78.0883 298.086L77.8408 302.117L77.7319 303.796L77.4844 307.821L74.6484 353.61C74.5274 355.581 73.6597 357.431 72.2222 358.784C70.7847 360.136 68.8857 360.889 66.9123 360.889H52.1727C50.1998 360.889 48.3013 360.136 46.8647 358.783C45.428 357.431 44.5613 355.58 44.4416 353.61L41.5906 307.821L41.3432 303.796L41.2392 302.117L40.9967 298.076L40.8928 296.398L40.6453 292.372L40.4671 289.52C40.4333 288.972 40.5119 288.424 40.6982 287.908C40.8844 287.392 41.1743 286.92 41.5499 286.52C41.9255 286.121 42.379 285.803 42.8822 285.585C43.3855 285.368 43.928 285.256 44.4762 285.256H74.6137C75.1626 285.256 75.7057 285.368 76.2095 285.586C76.7132 285.804 77.1669 286.123 77.5423 286.524C77.9176 286.925 78.2068 287.398 78.3918 287.915C78.5768 288.432 78.6538 288.982 78.6179 289.53Z" fill="#3F3D56"/>
<path d="M78.4397 292.382L78.1922 296.408H40.8879L40.6404 292.382H78.4397Z" fill="#9D9CB5"/>
<path d="M78.0883 298.086L77.8409 302.117H41.2442L40.9918 298.086H78.0883Z" fill="#9D9CB5"/>
<path d="M77.7319 303.796L77.4845 307.821H41.6006L41.3481 303.796H77.7319Z" fill="#9D9CB5"/>
<path d="M36.3491 250.128C52.7221 261.978 59.5425 280.517 59.5425 280.517C59.5425 280.517 39.8088 279.839 23.4111 267.989C7.01344 256.14 0.217773 237.6 0.217773 237.6C0.217773 237.6 19.9712 238.279 36.3491 250.128Z" fill="#374471"/>
<path d="M0.242554 237.6C0.242554 237.6 20.7236 248.989 27.2916 258.398C33.8596 267.806 59.5425 280.522 59.5425 280.522" stroke="#535461" stroke-width="2" stroke-miterlimit="10"/>
<path d="M46.9164 226.276C55.8255 232.713 59.5425 242.815 59.5425 242.815C59.5425 242.815 48.8021 242.448 39.8881 235.996C30.974 229.544 27.2668 219.457 27.2668 219.457C27.2668 219.457 38.0073 219.799 46.9164 226.276Z" fill="#374471"/>
<path d="M27.2668 219.432C27.2668 219.432 38.4131 225.622 41.9867 230.747C45.5602 235.872 59.5425 242.79 59.5425 242.79" stroke="#535461" stroke-width="2" stroke-miterlimit="10"/>
<path d="M72.4954 242.28C62.2548 253.535 60.0919 268.242 60.0919 268.242C60.0919 268.242 74.5247 264.701 84.7602 253.446C94.9958 242.191 97.1637 227.479 97.1637 227.479C97.1637 227.479 82.7309 231.02 72.4954 242.28Z" fill="#374471"/>
<path d="M97.1637 227.479C97.1637 227.479 83.8297 239.017 80.4393 246.969C77.0489 254.922 60.0919 268.262 60.0919 268.262" stroke="#535461" stroke-width="2" stroke-miterlimit="10"/>
</g>
<defs>
<linearGradient id="paint0_linear" x1="292.664" y1="319.924" x2="292.664" y2="53.3552" gradientUnits="userSpaceOnUse">
<stop stop-color="#808080" stop-opacity="0.25"/>
<stop offset="0.54" stop-color="#808080" stop-opacity="0.12"/>
<stop offset="1" stop-color="#808080" stop-opacity="0.1"/>
</linearGradient>
<linearGradient id="paint1_linear" x1="91087.4" y1="239384" x2="91087.4" y2="81108.8" gradientUnits="userSpaceOnUse">
<stop stop-color="#808080" stop-opacity="0.25"/>
<stop offset="0.54" stop-color="#808080" stop-opacity="0.12"/>
<stop offset="1" stop-color="#808080" stop-opacity="0.1"/>
</linearGradient>
<clipPath id="clip0">
<rect width="567" height="406" fill="white"/>
</clipPath>
</defs>
</svg>
